<mxfile host="app.diagrams.net" modified="2023-12-15T17:27:54.696Z" agent="Mozilla/5.0 (Windows NT 10.0; Win64; x64) AppleWebKit/537.36 (KHTML, like Gecko) Chrome/120.0.0.0 Safari/537.36" version="22.1.11" etag="W2szMocBL6i5JDXPjSP0" type="github">
  <diagram name="Page-1" id="MZo7BUG23rpC1Xs928Hb">
    <mxGraphModel>
      <root>
        <mxCell id="0" />
        <mxCell id="1" parent="0" />
      </root>
    </mxGraphModel>
  </diagram>
</mxfile>
